<svg id="Layer_1" data-name="Layer 1" xmlns="http://www.w3.org/2000/svg" viewBox="0 0 2414.51 400"><defs><style>.cls-1{fill:#fff;}</style></defs><title>natashatiffany_art logo</title><path class="cls-1" d="M299,205.28a8.73,8.73,0,0,1-3.7-5.27l0-.09v-.1a.93.93,0,0,1,.24-.62,1,1,0,0,1,.31-.23l2.45-3.77.59.29a6,6,0,0,1,3.13,4.82v0a4.3,4.3,0,0,1,0,.65,3.24,3.24,0,0,0,0,.43v.12l0,.12c-.15.51-.23.83-.29,1.06a4.35,4.35,0,0,1-.61,1.43c-.11.19-.25.44-.42.76l-.16.28-1.14.28Z"/><path class="cls-1" d="M296,199.79c0-.1.18-.2.28-.21l2.23-3.43a5.28,5.28,0,0,1,2.72,4.23c0,.39-.07.69-.06,1.08a7.63,7.63,0,0,1-1.25,3.1l-.49.12A7.94,7.94,0,0,1,296,199.79Z"/><path class="cls-1" d="M243,316.2a1,1,0,0,1-.24,0,1.55,1.55,0,0,1-1-.61,1.61,1.61,0,0,1-.31-1.12v-.08a176.86,176.86,0,0,1,5-20.87l.2-.74c1.79-6.37,3.8-13.08,6.31-21.14,1.33-4.28,2.73-8.73,4.16-13.21.25-.78.49-1.56.74-2.33l.17-.52h2.06l1,0-.31,1c-.26.78-.51,1.56-.76,2.34-1.61,5-3,9.42-4.31,13.58-1.78,5.75-4.09,13.34-6.23,21.08l-.08.27a178.65,178.65,0,0,0-4.76,21v0A1.58,1.58,0,0,1,243,316.2Z"/><path class="cls-1" d="M260.05,256.32l-1.51,0c-.25.78-.5,1.56-.74,2.33q-2.1,6.6-4.16,13.21c-2.19,7-4.31,14-6.3,21.12a182.67,182.67,0,0,0-5.14,21.52h0a.85.85,0,1,0,1.68.24v0a182,182,0,0,1,4.86-21.34c2-7.06,4.07-14.09,6.24-21.1q2.11-6.81,4.31-13.59c.25-.78.51-1.56.76-2.34Z"/><path class="cls-1" d="M260.05,257.06h-2.52l.3-1c2.87-9,5.76-17.86,8.61-26.41,2.18-6.69,4.51-13.71,6.92-20.89a15.78,15.78,0,0,0-7.75-7.72,35.51,35.51,0,0,1-6.24-.87l-.66-.11c-1-.14-2.49-.37-2.49-2.4a7.65,7.65,0,0,1,.15-1.36,6.43,6.43,0,0,0,.13-1.09v-.74h.75l.43,0a5.66,5.66,0,0,1,.57,0,14.12,14.12,0,0,1,4.54,1.21l.12.06c.58.25,1.17.52,1.82.84a76.84,76.84,0,0,0,10.78.76h1.7l3.18-9.42,14.11-41.74a2.48,2.48,0,0,1,2.34-1.68,2.62,2.62,0,0,1,.79.13,2.48,2.48,0,0,1,1.56,3.14l-7.75,20.71-7.52,20.68-2.89,8.1c1.31,0,2.83-.06,4.33-.06.79,0,1.33,0,2.78.11l3.58.18.71,0v1.38l-1.12.24c-5.74,1.24-5.74,1.24-8.8,1.51l-2.77.25c-3.28,9.28-6.68,19-10.37,29.8l-.06.18c.23.88.67,2.5.86,3a2.31,2.31,0,0,0,.3.56h.1a6.3,6.3,0,0,0,1.84-.55,19.48,19.48,0,0,0,2.44-1.38,57.24,57.24,0,0,0,4.73-3.71l1.09,1L277,235l-.06.06a25.63,25.63,0,0,1-2.62,2.1l-.79.48a6.08,6.08,0,0,1-.68.33l-.23.1,0,0c-.37.12-.7.22-1,.29h-.06a5.73,5.73,0,0,1-.85.07,3.25,3.25,0,0,1-.44,0,3.68,3.68,0,0,1-2.71-1.61,1.12,1.12,0,0,1-.1-.16c-2,6-4.33,12.93-6.6,19.92l-.17.51Zm11.32-55.84a22.8,22.8,0,0,1,3.24,3.83l1.29-3.86C274.35,201.22,272.73,201.22,271.37,201.22Z"/><path class="cls-1" d="M280.06,229.27a56.73,56.73,0,0,1-4.8,3.77,19.19,19.19,0,0,1-2.55,1.44,6.16,6.16,0,0,1-2.22.61.59.59,0,0,1-.47-.15,2.37,2.37,0,0,1-.54-.87c-.2-.49-.6-1.95-.94-3.26,0-.14.09-.27.13-.4q5.19-15.15,10.53-30.25c6.82-.67,4.64-.22,12.48-1.91v-.07c-4.46-.22-5.1-.29-6.32-.29-.43,0-2.52,0-4.68.07l-.71,0q1.62-4.57,3.26-9.12l7.51-20.69,7.72-20.62v0s0,0,0-.05a1.73,1.73,0,1,0-3.28-1.11l-14.11,41.74q-1.66,5-3.34,9.91l-.52,0h-1.72a76.87,76.87,0,0,1-11-.8c-.71-.36-1.36-.64-2-.93a13.12,13.12,0,0,0-4.24-1.15c-.28,0-.72.07-1,.07,0,.79-.29,1.65-.29,2.45,0,1.72,1.29,1.51,2.59,1.79a35.38,35.38,0,0,0,6.25.86c3.86,1.83,7.09,5,8.35,8.44q-3.54,10.54-7,21.13-4.38,13.17-8.6,26.4l1.51,0h0q3.6-11,7.32-22a8.85,8.85,0,0,0,.72,2.12,3,3,0,0,0,2.15,1.27,4.12,4.12,0,0,0,1.12,0,6.31,6.31,0,0,0,.93-.27,8.85,8.85,0,0,0,.82-.38l.74-.45a24.63,24.63,0,0,0,2.54-2m-7-34h1.86c1.73,0,3.81,0,5.69-.06-.73,2.13-1.44,4.27-2.16,6.41A21.29,21.29,0,0,0,269.4,200.48Z"/><path class="cls-1" d="M225.52,256h-.18a1.6,1.6,0,0,1-1.4-1.72h0v-.06a177.9,177.9,0,0,1,4.48-20.92l.19-.71c1.67-6.49,3.58-13.42,5.82-21.2,4-14,8.24-28.14,12.54-42.08,4.14-13.63,8.33-27.05,13-41.92l13.15-41.88a2.45,2.45,0,0,1,2.35-1.73,2.65,2.65,0,0,1,.74.11A2.47,2.47,0,0,1,277.83,87l0,0,0,0-7.23,20.69-7,20.77c-3.4,10.18-6.87,20.75-10.34,31.53.59-1.42,1.15-2.71,1.69-4a167.66,167.66,0,0,1,8.77-17.6l1.29-2.12c.29-.47.59-.92.89-1.37l.45-.69.32-.48.33-.53.69-1.07a23.15,23.15,0,0,1,1.6-2.09,17.61,17.61,0,0,1,1.92-1.94,8.88,8.88,0,0,1,2.75-1.64,3.94,3.94,0,0,1,1.17-.2h.1a3,3,0,0,1,1.38.34,3.22,3.22,0,0,1,1.52,1.91,8.69,8.69,0,0,1,.26,2.93c0,.85-.13,1.68-.22,2.48s-.19,1.62-.22,2.42-.17,1.83-.27,2.52-.25,1.61-.38,2.4c-.53,3.17-1.18,6.39-1.91,9.59s-1.52,6.27-2.42,9.46-1.92,6.29-3,9.29a16.35,16.35,0,0,0-.55,2.13,5.89,5.89,0,0,0-.11,1.83,5.76,5.76,0,0,0,1.57-.8,30.21,30.21,0,0,0,3.56-2.89c1-.92,2-2,3.38-3.34a1.61,1.61,0,0,1,.93-.48l.34,0,1.58,1.43v.35a1.62,1.62,0,0,1-.45,1l-.21.22h0c-1.22,1.22-2.33,2.27-3.39,3.21a32.56,32.56,0,0,1-4,3.13,8.36,8.36,0,0,1-2.72,1.2,2.94,2.94,0,0,1-.72.08,2.8,2.8,0,0,1-1.64-.51,3.09,3.09,0,0,1-1.15-2,8.62,8.62,0,0,1,.16-2.94,18.77,18.77,0,0,1,.71-2.54c1.23-3.27,2.26-6.25,3.18-9.11,1-3.18,1.88-6.29,2.63-9.25.81-3.17,1.53-6.33,2.13-9.4l.07-.37c.27-1.42.55-2.9.72-4.33a14.15,14.15,0,0,0-.13-4.56,5.92,5.92,0,0,0-.44-1.49,8.82,8.82,0,0,0-1,1.11c-.43.53-.83,1.1-1.26,1.7l-1.37,2-.63,1-.3.47-.36.55-.51.77c-.28.4-.55.82-.81,1.22l-1.24,2c-6.37,10.91-11.34,22.65-16.29,34.73-5,12.43-14.08,35.61-14.34,36.46-2.43,8.52-4.21,15-5.75,21.12l-.12.48a178.93,178.93,0,0,0-4.23,20.79v.06A1.58,1.58,0,0,1,225.52,256Z"/><path class="cls-1" d="M278.79,166.91a.82.82,0,0,0-.5.26c-1.11,1.15-2.24,2.29-3.41,3.36a29.83,29.83,0,0,1-3.65,3,6.28,6.28,0,0,1-1.9.93.77.77,0,0,1-.55,0,.76.76,0,0,1-.25-.54,6.58,6.58,0,0,1,.1-2.14,17.55,17.55,0,0,1,.58-2.24c1.07-3,2.07-6.15,3-9.26s1.7-6.26,2.42-9.42,1.36-6.34,1.9-9.53c.12-.8.25-1.6.37-2.41a24.2,24.2,0,0,0,.27-2.42c.05-1.62.37-3.23.44-4.9a8.14,8.14,0,0,0-.23-2.68,2.44,2.44,0,0,0-1.16-1.48,2.14,2.14,0,0,0-1.11-.25,3.36,3.36,0,0,0-.94.16,8.19,8.19,0,0,0-2.52,1.51,17.84,17.84,0,0,0-1.84,1.85,22.91,22.91,0,0,0-1.54,2l-.68,1.05-.34.55-.32.47c-.44.68-.89,1.35-1.33,2l-1.27,2.11a163.4,163.4,0,0,0-8.74,17.52c-1.3,3-2.53,6-3.74,9s-2.33,6.06-3.45,9.1c-1.91,5.27-3.74,10.57-5.45,15.9,2.07-6.8,4.19-13.59,6.31-20.38q6.66-20.91,13.6-41.71l7-20.77,7.23-20.71v0l0,0a1.72,1.72,0,1,0-3.29-1l-13.15,41.88c-4.37,14-8.74,27.92-13,41.92s-8.49,28-12.54,42.07c-2,7-4,14.08-5.81,21.17a182.94,182.94,0,0,0-4.66,21.54v0a.86.86,0,0,0,.74.94.84.84,0,0,0,.94-.74v0a181,181,0,0,1,4.37-21.36c1.8-7.08,3.75-14.12,5.76-21.15.21-.75,9.54-24.57,14.37-36.53s9.91-23.84,16.34-34.84l1.24-2c.42-.67.89-1.34,1.33-2l.36-.54.3-.48.64-1,1.32-1.9c.44-.63.88-1.24,1.33-1.81a8.37,8.37,0,0,1,1.33-1.41c.21-.13.29-.18.3-.22s.24,0,.41.29a5.57,5.57,0,0,1,.71,2.05,14.46,14.46,0,0,1,.13,4.78c-.18,1.58-.49,3.17-.79,4.75-.62,3.17-1.34,6.32-2.14,9.44S272,156.8,271,159.87s-2,6.1-3.18,9.14a18.64,18.64,0,0,0-.68,2.43,7.84,7.84,0,0,0-.16,2.68,2.33,2.33,0,0,0,.85,1.55,2.23,2.23,0,0,0,1.77.31,7.84,7.84,0,0,0,2.48-1.1,31.43,31.43,0,0,0,3.92-3.07c1.24-1.09,2.41-2.22,3.56-3.37h0a.86.86,0,0,0,.24-.57"/><path class="cls-1" d="M262.93,345.59a75.35,75.35,0,0,1-39.58-11.5c-12.07-7.36-22.9-17.88-32.2-31.27-19.08-27.48-29.59-64-29.59-102.82s10.51-75.34,29.59-102.82c9.3-13.39,20.13-23.91,32.2-31.27a73.88,73.88,0,0,1,79.17,0c12.07,7.36,22.9,17.88,32.2,31.27,19.08,27.48,29.59,64,29.59,102.82s-10.51,75.34-29.59,102.82c-9.3,13.39-20.13,23.91-32.2,31.27A75.36,75.36,0,0,1,262.93,345.59Zm0-289.32c-26.51,0-51.46,14.9-70.26,42S163.42,161.55,163.42,200s10.39,74.59,29.25,101.76,43.75,42,70.26,42,51.47-14.9,70.27-42S362.45,238.45,362.45,200,352.06,125.41,333.2,98.24,289.45,56.27,262.93,56.27Z"/><path class="cls-1" d="M262.93,354.28a82,82,0,0,1-42.42-12c-13-7.72-24.58-18.79-34.53-32.89-20.47-29-31.74-67.82-31.74-109.35S165.51,119.63,186,90.65c10-14.1,21.57-25.17,34.53-32.89a80.77,80.77,0,0,1,84.85,0c13,7.72,24.58,18.79,34.53,32.89,20.47,29,31.74,67.82,31.74,109.35s-11.27,80.37-31.74,109.35c-9.95,14.1-21.57,25.17-34.53,32.89A82,82,0,0,1,262.93,354.28Zm0-306.7c-28.55,0-55.34,15.67-75.44,44.14C167.25,120.39,156.1,158.85,156.1,200s11.15,79.61,31.39,108.28c20.1,28.47,46.89,44.14,75.44,44.14s55.35-15.67,75.45-44.14c20.24-28.67,31.39-67.13,31.39-108.28s-11.15-79.61-31.39-108.28C318.28,63.25,291.49,47.58,262.93,47.58Z"/><path class="cls-1" d="M547.76,153.89v1.05c-4.33,2.24-8.27,9.07-8.27,14.71v76.19h-2l-62.53-80v64.24c0,5.64,3.94,12.61,8.41,14.84v.92H465.66v-.92c4.47-2.23,8.41-9.2,8.41-14.84V164.66l-8.41-10.77h13.27l59.5,75.4V169.65c0-5.64-3.94-12.47-8.27-14.71v-1.05Z"/><path class="cls-1" d="M655.62,245.84H635.39v-.92c3.42-3.42,2.37-8-1.31-17.6l-6.43-16.68H595.07l-3.55,10c-4.2,11.95-4.86,18.39.66,24.3v.92h-15.5v-.92c5.65-5.91,9.46-11.95,13.79-24.3l19.7-55.43-4.33-11.3h10.37l25.62,66.73c5.38,13.13,8.8,18.39,13.79,24.3Zm-28.37-36.25-16.55-43-15.24,43Z"/><path class="cls-1" d="M753.1,169.92l-.78.39c-5.92-6.7-14.19-15.37-28.77-15.37h-2.89v82.23c0,4.6,1.05,6.57,3,7.75v.92H707.39v-.92c2-1.18,3-3.15,3-7.75V154.94h-2.9c-14.58,0-22.85,8.67-28.76,15.37l-.79-.39,4.2-16H748.9Z"/><path class="cls-1" d="M853.09,245.84H832.85v-.92c3.42-3.42,2.37-8-1.31-17.6l-6.44-16.68H792.53l-3.54,10c-4.21,11.95-4.87,18.39.65,24.3v.92h-15.5v-.92c5.64-5.91,9.46-11.95,13.79-24.3l19.7-55.43-4.33-11.3h10.38l25.61,66.73c5.39,13.13,8.8,18.39,13.8,24.3Zm-28.38-36.25-16.55-43-15.24,43Z"/><path class="cls-1" d="M952.67,164.93l-3.94,13.66h-.92c-7.49-17.61-17.07-24.31-27.45-24.31-13,0-20.49,7.36-21.28,15.24-2.49,26.27,53.85,17.61,53.85,50.44,0,15.63-14,26.67-32.7,26.67-15.63,0-25.35-5.26-35.6-13l3.94-15h.92C896.19,232,908.4,244,925.61,244c11.16,0,20.49-7.23,21.54-15.5,3.42-28-53.06-19.05-53.06-52,0-10.64,8.53-23.9,29.68-23.9C933.89,152.58,944.92,158.88,952.67,164.93Z"/><path class="cls-1" d="M1057.9,162.69v74.48c0,4.6.92,6.57,2.9,7.75v.92h-16.29v-.92c2.1-1.18,3-3.15,3-7.75V191.86h-45.71v45.31c0,4.6.91,6.57,2.89,7.75v.92H988.42v-.92c2.1-1.18,3-3.15,3-7.75V162.69c0-4.6-.92-6.56-3-7.75v-1.05h16.29v1.05c-2,1.19-2.89,3.15-2.89,7.75v28.24h45.71V162.69c0-4.6-.92-6.56-3-7.75v-1.05h16.29v1.05C1058.82,156.13,1057.9,158.09,1057.9,162.69Z"/><path class="cls-1" d="M1172.59,245.84h-20.22v-.92c3.41-3.42,2.35-8-1.32-17.6l-6.44-16.68H1112l-3.55,10c-4.21,11.95-4.86,18.39.66,24.3v.92h-15.5v-.92c5.65-5.91,9.46-11.95,13.79-24.3l19.71-55.43-4.34-11.3h10.37l25.62,66.73c5.38,13.13,8.8,18.39,13.79,24.3Zm-28.37-36.25-16.55-43-15.24,43Z"/><path class="cls-1" d="M1334.45,169.92l-.79.39c-5.91-6.7-14.19-15.37-28.76-15.37H1302v82.23c0,4.6,1,6.57,3,7.75v.92h-16.28v-.92c2-1.18,3-3.15,3-7.75V154.94h-2.9c-14.57,0-22.85,8.67-28.76,15.37l-.79-.39,4.21-16h66.72Z"/><path class="cls-1" d="M1381.89,162.69v74.48c0,4.6.92,6.57,3,7.75v.92h-16.29v-.92c2-1.18,2.89-3.15,2.89-7.75V162.69c0-4.6-.91-6.56-2.89-7.75v-1.05h16.29v1.05C1382.81,156.13,1381.89,158.09,1381.89,162.69Z"/><path class="cls-1" d="M1475.42,169.92l-.66.39c-5.91-6.7-14.18-15.37-28.76-15.37h-11v42.95l30.2-2.75v6.7l-30.2-2.9v38.23c0,4.6.91,6.57,2.88,7.75v.92H1421.7v-.92c2-1.18,2.89-3.15,2.89-7.75V162.69c0-4.6-.93-6.56-2.89-7.75v-1.05h49.52Z"/><path class="cls-1" d="M1563.32,169.92l-.66.39c-5.92-6.7-14.19-15.37-28.77-15.37h-11v42.95l30.2-2.75v6.7l-30.2-2.9v38.23c0,4.6.91,6.57,2.88,7.75v.92h-16.15v-.92c2-1.18,2.89-3.15,2.89-7.75V162.69c0-4.6-.92-6.56-2.89-7.75v-1.05h49.52Z"/><path class="cls-1" d="M1663.29,245.84h-20.23v-.92c3.42-3.42,2.37-8-1.31-17.6l-6.44-16.68h-32.58l-3.54,10c-4.2,11.95-4.86,18.39.65,24.3v.92h-15.5v-.92c5.65-5.91,9.46-11.95,13.8-24.3l19.7-55.43-4.34-11.3h10.38l25.62,66.73c5.38,13.13,8.79,18.39,13.79,24.3Zm-28.37-36.25-16.56-43-15.24,43Z"/><path class="cls-1" d="M1778.25,153.89v1.05c-4.34,2.24-8.28,9.07-8.28,14.71v76.19h-2l-62.53-80v64.24c0,5.64,4,12.61,8.41,14.84v.92h-17.73v-.92c4.46-2.23,8.4-9.2,8.4-14.84V164.66l-8.4-10.77h13.27l59.5,75.4V169.65c0-5.64-3.94-12.47-8.28-14.71v-1.05Z"/><path class="cls-1" d="M1888.87,153.89v1.05c-6,5.12-8.94,7.88-15.63,22.07l-16.82,36.12v24c0,4.6.92,6.57,3,7.75v.92h-16.29v-.92c2-1.18,2.89-3.15,2.89-7.75V214.58s-22.06-41.38-24.82-46.77-7.35-9.45-11.43-12.87v-1.05h23v1.05c-3.42,3.42-3.42,8.93,1.58,18.26l21,39.54,17.87-38c5.51-12.34,4.85-15.89.13-19.83v-1.05Z"/><path class="cls-1" d="M2053.21,245.84H2033v-.92c3.41-3.42,2.36-8-1.32-17.6l-6.43-16.68h-32.58l-3.55,10c-4.2,11.95-4.86,18.39.66,24.3v.92h-15.5v-.92c5.65-5.91,9.46-11.95,13.79-24.3l19.71-55.43-4.34-11.3h10.38l25.61,66.73c5.38,13.13,8.81,18.39,13.79,24.3Zm-28.37-36.25-16.55-43-15.23,43Z"/><path class="cls-1" d="M2156.22,244.92v.92H2136v-.92c3.41-3.42.65-8.15-4.47-17.21l-14.05-24.56c-2,.13-3.95.26-5.91.26h-12.22v33.76c0,4.6.92,6.57,2.89,7.75v.92h-16.16v-.92c2-1.18,2.89-3.15,2.89-7.75V162.69c0-4.73-.91-6.56-2.89-7.75v-1.05h25.49c20.35,0,38.74,7.62,38.74,24.83,0,12.34-9.85,19.83-23,22.85l11.82,20.76C2146.89,235.86,2151.1,240.32,2156.22,244.92Zm-16.29-66.2c0-10.25-3.42-23.78-28.37-23.78h-12.22v47.42h12.22C2136.39,202.36,2139.93,188.83,2139.93,178.72Z"/><path class="cls-1" d="M2260.27,169.92l-.79.39c-5.91-6.7-14.19-15.37-28.76-15.37h-2.9v82.23c0,4.6,1,6.57,3,7.75v.92h-16.28v-.92c2-1.18,3-3.15,3-7.75V154.94h-2.89c-14.58,0-22.85,8.67-28.77,15.37l-.79-.39,4.21-16h66.72Z"/></svg>